<svg width="122" height="40" viewBox="0 0 122 40" fill="none" xmlns="http://www.w3.org/2000/svg">
<path d="M43.272 29.2885C41.8 29.2885 40.552 29.0405 39.528 28.5445C38.504 28.0325 37.632 27.3765 36.912 26.5765L39.312 24.1525C40.448 25.4325 41.848 26.0725 43.512 26.0725C44.408 26.0725 45.072 25.8885 45.504 25.5205C45.936 25.1525 46.152 24.6645 46.152 24.0565C46.152 23.5925 46.024 23.2085 45.768 22.9045C45.512 22.5845 44.992 22.3685 44.208 22.2565L42.552 22.0405C40.776 21.8165 39.472 21.2805 38.64 20.4325C37.824 19.5845 37.416 18.4565 37.416 17.0485C37.416 16.2965 37.56 15.6085 37.848 14.9845C38.136 14.3605 38.544 13.8245 39.072 13.3765C39.616 12.9285 40.272 12.5845 41.04 12.3445C41.824 12.0885 42.712 11.9605 43.704 11.9605C44.968 11.9605 46.08 12.1605 47.04 12.5605C48 12.9605 48.824 13.5445 49.512 14.3125L47.088 16.7605C46.688 16.2965 46.2 15.9205 45.624 15.6325C45.064 15.3285 44.352 15.1765 43.488 15.1765C42.672 15.1765 42.064 15.3205 41.664 15.6085C41.264 15.8965 41.064 16.2965 41.064 16.8085C41.064 17.3845 41.216 17.8005 41.52 18.0565C41.84 18.3125 42.352 18.4965 43.056 18.6085L44.712 18.8725C46.44 19.1445 47.72 19.6805 48.552 20.4805C49.384 21.2645 49.8 22.3845 49.8 23.8405C49.8 24.6405 49.656 25.3765 49.368 26.0485C49.08 26.7205 48.656 27.2965 48.096 27.7765C47.552 28.2565 46.872 28.6325 46.056 28.9045C45.24 29.1605 44.312 29.2885 43.272 29.2885ZM61.9446 29.0005C61.3046 29.0005 60.7686 28.8005 60.3366 28.4005C59.9206 28.0005 59.6566 27.4645 59.5446 26.7925H59.4006C59.2086 27.6085 58.7846 28.2325 58.1286 28.6645C57.4726 29.0805 56.6646 29.2885 55.7046 29.2885C54.4406 29.2885 53.4726 28.9525 52.8006 28.2805C52.1286 27.6085 51.7926 26.7205 51.7926 25.6165C51.7926 24.2885 52.2726 23.3045 53.2326 22.6645C54.2086 22.0085 55.5286 21.6805 57.1926 21.6805H59.1846V20.8885C59.1846 20.2805 59.0246 19.8005 58.7046 19.4485C58.3846 19.0805 57.8486 18.8965 57.0966 18.8965C56.3926 18.8965 55.8326 19.0485 55.4166 19.3525C55.0006 19.6565 54.6566 20.0005 54.3846 20.3845L52.2726 18.5125C52.7846 17.7605 53.4246 17.1765 54.1926 16.7605C54.9766 16.3285 56.0326 16.1125 57.3606 16.1125C59.1526 16.1125 60.4966 16.5045 61.3926 17.2885C62.2886 18.0725 62.7366 19.2165 62.7366 20.7205V26.2405H63.9126V29.0005H61.9446ZM57.0246 26.8165C57.6166 26.8165 58.1206 26.6885 58.5366 26.4325C58.9686 26.1765 59.1846 25.7605 59.1846 25.1845V23.6965H57.4566C56.0646 23.6965 55.3686 24.1685 55.3686 25.1125V25.4725C55.3686 25.9365 55.5126 26.2805 55.8006 26.5045C56.0886 26.7125 56.4966 26.8165 57.0246 26.8165ZM66.9206 19.1605H65.1446V16.4005H66.9206V14.9125C66.9206 13.6965 67.2406 12.7845 67.8806 12.1765C68.5206 11.5525 69.4566 11.2405 70.6886 11.2405H72.9926V14.0005H70.4726V16.4005H72.9926V19.1605H70.4726V29.0005H66.9206V19.1605ZM73.7685 16.4005H77.2005L78.4245 21.4885L79.2885 25.3285H79.3845L80.3925 21.4885L81.8325 16.4005H85.0725L86.5365 21.4885L87.5685 25.3285H87.6645L88.5285 21.4885L89.7525 16.4005H93.0405L89.5605 29.0005H85.8405L84.3045 23.6725L83.4165 20.4085H83.3445L82.4805 23.6725L80.9445 29.0005H77.2965L73.7685 16.4005ZM104.132 29.0005C103.492 29.0005 102.956 28.8005 102.524 28.4005C102.108 28.0005 101.844 27.4645 101.732 26.7925H101.588C101.396 27.6085 100.972 28.2325 100.316 28.6645C99.6601 29.0805 98.8521 29.2885 97.8921 29.2885C96.6281 29.2885 95.6601 28.9525 94.9881 28.2805C94.3161 27.6085 93.9801 26.7205 93.9801 25.6165C93.9801 24.2885 94.4601 23.3045 95.4201 22.6645C96.3961 22.0085 97.7161 21.6805 99.3801 21.6805H101.372V20.8885C101.372 20.2805 101.212 19.8005 100.892 19.4485C100.572 19.0805 100.036 18.8965 99.2841 18.8965C98.5801 18.8965 98.0201 19.0485 97.6041 19.3525C97.1881 19.6565 96.8441 20.0005 96.5721 20.3845L94.4601 18.5125C94.9721 17.7605 95.6121 17.1765 96.3801 16.7605C97.1641 16.3285 98.2201 16.1125 99.5481 16.1125C101.34 16.1125 102.684 16.5045 103.58 17.2885C104.476 18.0725 104.924 19.2165 104.924 20.7205V26.2405H106.1V29.0005H104.132ZM99.2121 26.8165C99.8041 26.8165 100.308 26.6885 100.724 26.4325C101.156 26.1765 101.372 25.7605 101.372 25.1845V23.6965H99.6441C98.2521 23.6965 97.5561 24.1685 97.5561 25.1125V25.4725C97.5561 25.9365 97.7001 26.2805 97.9881 26.5045C98.2761 26.7125 98.6841 26.8165 99.2121 26.8165ZM108.484 29.0005V16.4005H112.036V18.5365H112.18C112.404 17.8805 112.796 17.3125 113.356 16.8325C113.916 16.3525 114.692 16.1125 115.684 16.1125C116.98 16.1125 117.956 16.5445 118.612 17.4085C119.284 18.2725 119.62 19.5045 119.62 21.1045V29.0005H116.068V21.3925C116.068 20.5765 115.94 19.9765 115.684 19.5925C115.428 19.1925 114.972 18.9925 114.316 18.9925C114.028 18.9925 113.748 19.0325 113.476 19.1125C113.204 19.1765 112.956 19.2885 112.732 19.4485C112.524 19.6085 112.356 19.8085 112.228 20.0485C112.1 20.2725 112.036 20.5365 112.036 20.8405V29.0005H108.484Z" fill="#00413D"/>
<path fill-rule="evenodd" clip-rule="evenodd" d="M18.8184 27.3141C18.7025 27.0592 18.5258 26.8319 18.2828 26.6213C17.2723 25.7512 15.2569 25.0805 14.0089 24.7092C12.7002 24.3212 11.3253 23.8723 9.97245 23.3402L9.96141 23.2127H9.65218C7.60358 22.3869 5.61571 21.3671 3.96468 20.0867C1.27555 17.9917 0 15.1152 0 11.7287C0 8.34226 1.57373 5.29944 4.38987 3.17667C7.36614 0.931975 10.9112 0.0285526 14.5998 0.000840282C17.3441 -0.0213296 20.0664 0.394356 22.6396 1.34766C24.909 2.19012 27.0405 3.38175 28.8406 5.01678L29.4866 5.60428V15.6361H23.2801L23.3795 10.0604C22.3745 9.05723 21.1321 8.25358 19.6578 7.64945C18.1779 7.05086 16.5379 6.75157 14.7378 6.75157C12.3082 6.79037 10.2927 7.46655 8.68586 8.7912C7.079 10.1214 6.27281 11.8285 6.27281 13.9124C6.27281 15.9964 6.98513 17.6869 8.40977 18.9007C9.8344 20.12 11.9272 21.1675 14.7047 22.0543C16.3005 22.5864 17.4159 23.1517 18.0564 23.7503C18.6914 24.3544 19.0117 25.1526 19.0117 26.1447C19.0117 26.5659 18.9454 26.9539 18.8184 27.303V27.3141Z" fill="#EF8100"/>
<path fill-rule="evenodd" clip-rule="evenodd" d="M11.2313 12.6206C11.3583 12.7814 11.5294 12.9199 11.7227 13.0529C13.0314 13.9675 15.3064 14.7157 16.8304 15.2034C20.1656 16.129 23.7272 17.5479 26.3446 19.8757C28.8404 22.0927 30 24.9914 30 28.3169C30 31.914 28.5367 34.8903 25.6378 37.013C22.5897 39.2467 18.8404 40.0004 15.1242 40.0004C12.3136 40.0004 9.52502 39.5681 6.90215 38.5317C4.5388 37.595 2.3908 36.2537 0.623811 34.4025L0.0771484 33.8261V23.7277H6.32787V29.575C7.32733 30.7223 8.56974 31.6147 10.0606 32.2631C11.5571 32.9172 13.2302 33.2331 15.08 33.2442C17.6697 33.2386 19.757 32.6012 21.3418 31.3265C22.9265 30.0517 23.7217 28.3114 23.7217 26.1055C23.7217 23.8996 23.0535 22.2867 21.7228 20.9898C20.392 19.6928 18.4318 18.6453 15.8531 17.8583C14.0529 17.232 12.7884 16.6389 12.054 16.0736C11.3251 15.5138 10.9607 14.7988 10.9607 13.9231C10.9607 13.4409 11.0546 12.9975 11.2368 12.604L11.2313 12.6206Z" fill="#00413D"/>
</svg>
