<svg width="976" height="653" viewBox="0 0 976 653" fill="none" xmlns="http://www.w3.org/2000/svg">
<g opacity="0.1">
<path d="M136.238 168.227C141.321 168.227 145.442 164.106 145.442 159.023C145.442 153.94 141.321 149.819 136.238 149.819C131.155 149.819 127.034 153.94 127.034 159.023C127.034 164.106 131.155 168.227 136.238 168.227Z" fill="#E5745D"/>
<path d="M136.238 174.786C144.943 174.786 152 167.729 152 159.023C152 150.318 144.943 143.26 136.238 143.26C127.532 143.26 120.475 150.318 120.475 159.023C120.475 167.729 127.532 174.786 136.238 174.786Z" stroke="#E5745D" stroke-miterlimit="10"/>
<path d="M180.697 208.718C192.831 208.718 202.669 198.88 202.669 186.745C202.669 174.611 192.831 164.773 180.697 164.773C168.562 164.773 158.724 174.611 158.724 186.745C158.724 198.88 168.562 208.718 180.697 208.718Z" fill="white"/>
<path d="M70.2288 133.689L86.616 114.16" stroke="white" stroke-miterlimit="10"/>
<path d="M75.2621 137.896L101.001 107.234" stroke="white" stroke-miterlimit="10"/>
<path d="M70.2288 154.118L96.6651 122.592" stroke="white" stroke-miterlimit="10"/>
<path d="M116.598 470.345L137.505 445.396" stroke="#E5745D" stroke-miterlimit="10"/>
<path d="M123.009 475.727L155.876 436.541" stroke="#E5745D" stroke-miterlimit="10"/>
<path d="M116.598 496.432L150.365 456.18" stroke="#E5745D" stroke-miterlimit="10"/>
<path d="M936 470.345L956.907 445.396" stroke="#E5745D" stroke-miterlimit="10"/>
<path d="M942.411 475.727L975.278 436.541" stroke="#E5745D" stroke-miterlimit="10"/>
<path d="M936 496.432L969.767 456.18" stroke="#E5745D" stroke-miterlimit="10"/>
<g opacity="0.5">
<path opacity="0.5" d="M82.6856 34.8323L58.1415 62.1873" stroke="white" stroke-miterlimit="10"/>
<path opacity="0.5" d="M89.7218 41.1521L51.1785 84.1228" stroke="white" stroke-miterlimit="10"/>
<path opacity="0.5" d="M111.841 30.6802L72.2324 74.8267" stroke="white" stroke-miterlimit="10"/>
</g>
<path d="M133.482 285.363C135.045 285.363 136.311 284.097 136.311 282.534C136.311 280.971 135.045 279.705 133.482 279.705C131.92 279.705 130.653 280.971 130.653 282.534C130.653 284.097 131.92 285.363 133.482 285.363Z" fill="white"/>
<path d="M161.535 537.18C161.535 538.741 160.267 540.009 158.706 540.009C157.144 540.009 155.877 538.741 155.877 537.18C155.877 535.618 157.144 534.351 158.706 534.351C160.267 534.369 161.535 535.618 161.535 537.18Z" fill="#E5745D"/>
<path d="M122.717 562.128C122.717 565.509 119.98 568.246 116.599 568.246C113.219 568.246 110.482 565.509 110.482 562.128C110.482 558.748 113.219 556.01 116.599 556.01C119.98 556.01 122.717 558.748 122.717 562.128Z" fill="white"/>
<path d="M227.452 381.482C227.452 384.862 224.715 387.6 221.335 387.6C217.954 387.6 215.217 384.862 215.217 381.482C215.217 378.102 217.954 375.364 221.335 375.364C224.715 375.346 227.452 378.102 227.452 381.482Z" fill="white"/>
<path d="M154.142 254.096L146.775 291.059L86.7375 254.849L154.142 254.096Z" fill="#E5745D"/>
<path d="M156.023 323.3L130.615 313.324L133.885 343.417L156.023 323.3Z" fill="white"/>
<path d="M914.408 144.976L889 135L892.27 165.092L914.408 144.976Z" fill="white"/>
<path d="M-76.7961 55.5181C-101.506 41.7763 -132.112 32.7376 -160.184 40.7842C-181.972 47.0305 -198.415 63.3076 -210.834 81.6422C-224.815 102.273 -234.662 125.403 -245.097 147.945C-251.49 161.742 -258.453 175.006 -267.785 187.094C-277.816 200.101 -289.757 211.638 -303.077 221.228C-316.855 231.13 -332.03 238.865 -348.123 244.211C-366.476 250.31 -385.546 253.69 -404.377 257.953C-435.332 264.989 -468.162 275.92 -488.426 301.971C-497.391 313.489 -502.719 327.452 -502.958 342.094C-503.215 357.121 -498.401 371.929 -490.814 384.789C-473.6 414.018 -443.673 430.736 -412.442 441.446C-379.006 452.91 -343.714 458.366 -310.976 471.961C-294.626 478.758 -278.973 487.669 -266.003 499.849C-253.143 511.937 -243.204 526.653 -234.368 541.828C-217.705 570.487 -204.294 601.737 -180.282 625.307C-169.204 636.183 -155.959 644.983 -141.004 649.466C-125.976 653.948 -109.92 653.948 -94.6532 650.697C-22.9128 635.393 9.01669 563.102 37.9333 503.744C54.1001 470.565 72.0307 438.268 99.2754 412.824C125.583 388.261 156.98 369.522 181.506 342.994C203.294 319.442 219.682 289.276 215.842 256.262C212.186 224.884 192.657 197.125 168.701 177.486C141.107 154.871 106.973 141.643 73.831 129.481C56.0475 122.96 38.0435 116.879 20.7743 109.052C3.72568 101.318 -12.6616 92.2609 -28.8468 82.8915C-36.5812 78.4089 -44.2604 73.8528 -51.9764 69.3334C-60.17 64.5385 -68.676 60.3865 -76.9615 55.7753C-77.6045 55.4079 -78.1924 56.4 -77.5494 56.7674C-69.2823 61.3602 -61.4193 66.7063 -53.2624 71.5012C-45.5464 76.0206 -37.8671 80.5767 -30.1328 85.0593C-14.315 94.2267 1.7049 103.082 18.331 110.687C51.3077 125.789 86.544 135.25 119.429 150.608C150.091 164.92 178.934 184.136 197.342 213.2C205.793 226.538 211.819 241.602 213.472 257.365C215.199 273.807 211.892 290.25 204.874 305.149C190.177 336.362 162.785 358.628 136.128 379.332C121.983 390.319 107.69 401.213 94.7744 413.65C82.2819 425.665 71.5345 439.242 62.2018 453.828C43.169 483.572 29.8498 516.42 13.5176 547.633C-2.42877 578.093 -21.9391 608.589 -50.6353 628.541C-77.1452 646.967 -112.069 656.851 -143.503 646.049C-174.44 635.411 -194.888 607.248 -210.467 579.985C-227.001 551.032 -240.743 519.267 -265.967 496.524C-290.878 474.074 -323.634 463.455 -355.417 454.968C-389 446.002 -424.071 438.654 -453.685 419.511C-479.81 402.627 -501.525 373.417 -500.496 341.102C-499.467 308.364 -473.012 285.344 -445.014 272.999C-411.413 258.173 -373.715 256.869 -339.544 243.715C-310.921 232.692 -285.55 213.696 -266.683 189.556C-249.928 168.135 -240.485 142.617 -228.709 118.367C-218.55 97.4417 -207.031 75.9839 -189.597 60.1477C-171.593 43.7788 -148.481 37.606 -124.525 40.9496C-108.009 43.246 -92.3016 49.1249 -77.6964 57.0797C-76.7043 57.5757 -75.8225 56.0692 -76.7961 55.5181Z" fill="white"/>
<path d="M65.7289 417.747C87.3705 394.36 114.744 377.569 138.369 356.405C158.964 337.96 177.886 314.518 182.516 286.502C186.962 259.459 176.453 232.857 159.497 212.079C140.611 188.931 114.321 173.903 87.2418 162.219C57.6454 149.451 26.3957 140.761 -2.63112 126.652C-31.5477 112.58 -58.1127 94.3552 -86.6068 79.5662C-108.193 68.3596 -134.703 61.5071 -158.715 68.4331C-177.196 73.7608 -191.526 87.0617 -202.512 102.383C-215.06 119.873 -223.896 139.751 -232.843 159.206C-237.969 170.376 -242.984 181.583 -249.727 191.907C-257.277 203.445 -266.408 213.935 -276.751 223.047C-287.351 232.398 -299.256 240.261 -312.006 246.342C-326.684 253.341 -342.465 257.438 -358.283 260.947C-387.053 267.322 -417.035 272.466 -441.193 290.58C-451.353 298.204 -460.134 307.904 -465.26 319.644C-470.385 331.365 -471.414 344.353 -468.824 356.846C-463.257 383.631 -443.6 405.199 -420.397 418.5C-367.965 448.574 -298.337 443.412 -253.291 487.32C-231.429 508.63 -219.579 537.327 -204.331 563.212C-190.791 586.213 -173.357 609.085 -147.875 619.428C-121.88 629.992 -92.2652 624.48 -68.3273 611.216C-42.442 596.887 -23.4827 573.224 -8.60182 548.166C-4.85405 541.846 -1.32674 535.416 2.0536 528.894C5.54417 522.188 8.22643 515.171 11.5149 508.373C11.8272 507.712 10.8536 507.124 10.5229 507.785C7.27116 514.528 3.33958 520.976 -0.114243 527.608C-3.58644 534.277 -7.18724 540.891 -11.0452 547.357C-18.6326 560.089 -27.1386 572.306 -37.2061 583.2C-56.6247 604.217 -82.8039 620.016 -111.812 622.257C-125.756 623.341 -139.829 620.971 -152.376 614.688C-164.63 608.552 -174.955 599.275 -183.7 588.822C-202.126 566.794 -213.149 540.009 -228.14 515.74C-235.599 503.67 -244.123 492.133 -254.687 482.598C-265.305 473.008 -277.743 465.66 -290.787 459.909C-317.59 448.078 -346.525 442.75 -374.487 434.428C-402.338 426.143 -430.648 414.293 -449.332 391.072C-466.252 370.036 -474.28 340.716 -460.612 315.896C-447.348 291.811 -420.397 278.988 -394.971 271.988C-365.228 263.795 -334.051 260.69 -306.31 246.305C-282.905 234.18 -262.678 215.974 -248.128 194.002C-235.709 175.263 -228.048 153.621 -217.981 133.596C-209.089 115.942 -198.819 98.0478 -183.681 84.9674C-167.992 71.4093 -148.169 66.2836 -127.722 68.8556C-97.2071 72.6769 -71.4136 90.883 -45.4916 106.021C-31.8416 113.994 -18.0814 121.82 -3.84358 128.728C9.87987 135.397 24.0258 140.816 38.3555 146.016C91.6694 165.434 156.704 187.866 176.766 247.205C181.193 260.286 182.498 274.285 179.907 287.88C177.262 301.732 170.96 314.592 162.859 326.055C145.553 350.599 120.861 367.979 97.6401 386.424C85.9375 395.72 74.5472 405.42 64.498 416.498C63.7447 417.343 64.9757 418.574 65.7289 417.747Z" fill="white"/>
</g>
</svg>
